<svg width="32" height="32" viewBox="0 0 32 32" fill="none" xmlns="http://www.w3.org/2000/svg">
<path d="M16.0001 5.07614C19.5342 5.07614 20.0161 5.07614 21.4619 5.07614C22.7471 5.07614 23.3896 5.39743 23.8716 5.55807C24.5141 5.87936 24.9961 6.04 25.478 6.52193C25.9599 7.00385 26.2812 7.48578 26.4418 8.12835C26.6025 8.61028 26.7631 9.25285 26.9238 10.538C26.9238 11.9838 26.9238 12.3051 26.9238 15.9998C26.9238 19.6946 26.9238 20.0159 26.9238 21.4617C26.9238 22.7468 26.6025 23.3894 26.4418 23.8713C26.1206 24.5139 25.9599 24.9958 25.478 25.4777C24.9961 25.9597 24.5141 26.281 23.8716 26.4416C23.3896 26.6022 22.7471 26.7629 21.4619 26.9235C20.0161 26.9235 19.6949 26.9235 16.0001 26.9235C12.3053 26.9235 11.984 26.9235 10.5382 26.9235C9.25309 26.9235 8.61052 26.6022 8.1286 26.4416C7.48603 26.1203 7.0041 25.9597 6.52217 25.4777C6.04024 24.9958 5.71896 24.5139 5.55831 23.8713C5.39767 23.3894 5.23703 22.7468 5.07639 21.4617C5.07639 20.0159 5.07639 19.6946 5.07639 15.9998C5.07639 12.3051 5.07639 11.9838 5.07639 10.538C5.07639 9.25285 5.39767 8.61028 5.55831 8.12835C5.8796 7.48578 6.04024 7.00385 6.52217 6.52193C7.0041 6.04 7.48603 5.71871 8.1286 5.55807C8.61052 5.39743 9.25309 5.23679 10.5382 5.07614C11.984 5.07614 12.4659 5.07614 16.0001 5.07614ZM16.0001 2.6665C12.3053 2.6665 11.984 2.6665 10.5382 2.6665C9.09245 2.6665 8.1286 2.98779 7.32538 3.30908C6.52217 3.63036 5.71896 4.11229 4.91575 4.9155C4.11253 5.71871 3.79125 6.36128 3.30932 7.32514C2.98803 8.12835 2.82739 9.09221 2.66675 10.538C2.66675 11.9838 2.66675 12.4657 2.66675 15.9998C2.66675 19.6946 2.66675 20.0159 2.66675 21.4617C2.66675 22.9075 2.98803 23.8713 3.30932 24.6745C3.6306 25.4777 4.11253 26.281 4.91575 27.0842C5.71896 27.8874 6.36153 28.2087 7.32538 28.6906C8.1286 29.0119 9.09245 29.1725 10.5382 29.3332C11.984 29.3332 12.4659 29.3332 16.0001 29.3332C19.5342 29.3332 20.0161 29.3332 21.4619 29.3332C22.9077 29.3332 23.8716 29.0119 24.6748 28.6906C25.478 28.3693 26.2812 27.8874 27.0844 27.0842C27.8876 26.281 28.2089 25.6384 28.6908 24.6745C29.0121 23.8713 29.1728 22.9075 29.3334 21.4617C29.3334 20.0159 29.3334 19.534 29.3334 15.9998C29.3334 12.4657 29.3334 11.9838 29.3334 10.538C29.3334 9.09221 29.0121 8.12835 28.6908 7.32514C28.3696 6.52193 27.8876 5.71871 27.0844 4.9155C26.2812 4.11229 25.6386 3.791 24.6748 3.30908C23.8716 2.98779 22.9077 2.82715 21.4619 2.6665C20.0161 2.6665 19.6949 2.6665 16.0001 2.6665Z" fill="white"/>
<path d="M16.0001 9.09221C12.1447 9.09221 9.09245 12.1444 9.09245 15.9998C9.09245 19.8553 12.1447 22.9075 16.0001 22.9075C19.8555 22.9075 22.9077 19.8553 22.9077 15.9998C22.9077 12.1444 19.8555 9.09221 16.0001 9.09221ZM16.0001 20.4978C13.5904 20.4978 11.5021 18.5701 11.5021 15.9998C11.5021 13.5902 13.4298 11.5018 16.0001 11.5018C18.4097 11.5018 20.4981 13.4296 20.4981 15.9998C20.4981 18.4095 18.4097 20.4978 16.0001 20.4978Z" fill="white"/>
<path d="M23.0684 10.538C23.9556 10.538 24.6748 9.81877 24.6748 8.93157C24.6748 8.04436 23.9556 7.32514 23.0684 7.32514C22.1812 7.32514 21.4619 8.04436 21.4619 8.93157C21.4619 9.81877 22.1812 10.538 23.0684 10.538Z" fill="white"/>
</svg>
