<svg width="71" height="32" viewBox="0 0 71 32" fill="none" xmlns="http://www.w3.org/2000/svg">
<path d="M0 0.76825H7.71108C8.12851 0.76825 8.60873 0.780808 9.15014 0.805823C9.69275 0.831141 10.2483 0.889812 10.8153 0.981335C11.3827 1.07386 11.9339 1.22406 12.468 1.43292C13.0026 1.64219 13.4779 1.92631 13.8953 2.28557C14.3124 2.64544 14.6506 3.09662 14.9094 3.63994C15.1682 4.18325 15.2976 4.84783 15.2976 5.63346C15.2981 6.33581 15.1848 6.92946 14.9605 7.4141C14.7359 7.89894 14.4652 8.30412 14.1492 8.63043C13.8324 8.95603 13.4963 9.21945 13.1385 9.41988C12.7802 9.62111 12.468 9.77161 12.2025 9.87187C12.4995 9.97204 12.8674 10.1141 13.3067 10.2981C13.7447 10.4824 14.1629 10.7578 14.5605 11.1256C14.9574 11.4938 15.296 11.9618 15.5778 12.5301C15.8594 13.0988 15.9998 13.8089 15.9998 14.6616C15.9995 15.5313 15.8659 16.2708 15.5999 16.8808C15.3326 17.4914 14.9743 18.0012 14.5247 18.4108C14.0752 18.8205 13.5622 19.1427 12.9874 19.3763C12.4116 19.6106 11.8166 19.7862 11.1999 19.9028C10.5833 20.0199 9.97003 20.0951 9.36222 20.1284C8.754 20.1622 8.1914 20.1787 7.67471 20.1787H0V0.76825ZM9.78065 6.46089C9.78065 6.07651 9.7049 5.76738 9.55481 5.5332C9.40361 5.29941 9.2077 5.11928 8.96498 4.9937C8.72276 4.86852 8.45522 4.78956 8.16297 4.7557C7.87032 4.72234 7.57354 4.70577 7.27255 4.70577H5.467V8.24143H7.17239C7.52331 8.24143 7.85736 8.22485 8.17533 8.1916C8.4929 8.15814 8.76847 8.07827 9.00266 7.95309C9.23724 7.82791 9.42471 7.64818 9.56686 7.414C9.70882 7.18012 9.78065 6.86215 9.78065 6.46089ZM10.4829 13.8712C10.4825 13.4342 10.4076 13.0768 10.2579 12.7995C10.1086 12.5219 9.89579 12.3037 9.62132 12.1437C9.34715 11.9839 9.02225 11.8744 8.64872 11.8158C8.27398 11.7571 7.85434 11.7272 7.38808 11.7272H5.46669L5.467 16.0908H7.48835C7.83787 16.0908 8.18638 16.0655 8.5364 16.0153C8.88561 15.965 9.20549 15.8639 9.49684 15.7128C9.78799 15.5614 10.0248 15.3385 10.2079 15.0441C10.3908 14.7501 10.4821 14.3588 10.4829 13.8712Z" fill="#2A3A7C"/>
<path d="M16.413 20.1785L22.8822 0.768158H28.8514L35.3463 20.1785H29.629L28.9012 17.6457H22.557L21.8292 20.1785H16.413ZM25.7412 6.61139L23.7856 13.5578H27.7981L25.7412 6.61139Z" fill="#2A3A7C"/>
<path d="M53.448 0.76825H58.965L58.9653 7.81516H64.6586L64.6582 0.76825H70.15L70.1502 20.1785H64.6586L64.6582 12.0031H58.965L58.9653 20.1785H53.4486L53.448 0.76825Z" fill="#2A3A7C"/>
<path opacity="0.6" d="M50.9821 14.3551C49.7379 16.2661 47.6456 17.5182 45.2545 17.5182C41.43 17.5182 38.3295 14.3205 38.3295 10.3359C38.3295 6.35129 41.3928 3.14063 45.2512 3.07553C47.5625 3.03645 49.5726 4.19963 50.8213 5.97143L50.6932 6.15819L48.579 9.44138L47.8418 8.29106C47.2667 7.45841 46.3196 6.91198 45.2624 6.94543C43.4435 7.0033 42.0449 8.43925 42.0449 10.3208C42.0449 12.1731 43.3781 13.617 45.2705 13.6531C46.3069 13.6728 47.3324 13.0928 47.9081 12.1868L51.7634 6.23746C53.0076 4.32662 55.0999 3.07452 57.4911 3.07452C61.3156 3.07452 64.416 6.27212 64.416 10.2568C64.416 14.2414 61.3529 17.4519 57.4944 17.5173C55.1829 17.5562 53.1729 16.393 51.9241 14.6213L52.0522 14.4345L54.1667 11.1513L54.9037 12.3016C55.479 13.1343 56.4261 13.6807 57.4831 13.647C59.302 13.5893 60.7007 12.1533 60.7007 10.2718C60.7007 8.41956 59.3675 6.97557 57.4751 6.93961C56.4387 6.91982 55.4132 7.4999 54.8375 8.40589L50.9821 14.3551Z" fill="#2473BA"/>
<path d="M57.4595 7.81516H64.6586L64.6582 0.76825H70.15L70.1502 20.1785H64.6586L64.6582 12.0031H57.4595V7.81516Z" fill="#2A3A7C"/>
<path d="M52.3391 17.5527C51.2689 18.6727 50.7493 18.9146 49.2698 19.6711C47.7915 20.4275 46.1341 20.8057 44.2983 20.8057C42.7685 20.8057 41.3619 20.5465 40.0786 20.0281C38.7951 19.5099 37.6946 18.791 36.777 17.8734C35.8588 16.9557 35.1445 15.8634 34.6352 14.597C34.1253 13.3311 33.8703 11.942 33.8692 10.4286C33.8695 8.96679 34.1295 7.59796 34.6474 6.32356C35.1661 5.04846 35.8926 3.94365 36.8279 3.00842C37.7625 2.0741 38.8638 1.33879 40.1296 0.803216C41.3957 0.26794 42.7856 0 44.2992 0C46.0494 0 47.6799 0.306719 49.1428 1.03248C50.1509 1.53309 50.9054 1.98579 51.6005 2.84406L48.5164 7.37332C48.0914 6.71055 47.3625 6.21295 46.6056 5.88995C45.849 5.56706 45.08 5.40541 44.2983 5.40541C43.6181 5.40541 42.9859 5.52908 42.3987 5.77562C41.8118 6.02136 41.3027 6.36616 40.8691 6.8078C40.4358 7.25015 40.0954 7.7811 39.849 8.40117C39.6025 9.02215 39.4793 9.69787 39.4795 10.4286C39.4795 11.0914 39.6067 11.7203 39.8622 12.3155C40.117 12.9103 40.4612 13.4333 40.8946 13.8836C41.3286 14.334 41.8377 14.6862 42.4244 14.9414C43.0103 15.1963 43.6347 15.3235 44.2983 15.3235C45.0966 15.3235 45.8406 15.1327 46.5297 14.7505C47.2179 14.3677 48.2611 13.5193 48.6857 12.8564L52.3391 17.5527Z" fill="#2A3A7C"/>
<path d="M52.0216 29.0512C51.9852 29.0942 51.9522 29.1329 51.9233 29.1668C51.8939 29.2009 51.8613 29.2353 51.8249 29.2693C51.6789 29.4404 51.526 29.5966 51.3659 29.7379C51.2053 29.8789 51.0345 30.0051 50.8523 30.1164C50.7068 30.202 50.5612 30.2725 50.4154 30.3281C50.2698 30.3839 50.1203 30.4199 49.9673 30.4372C49.6178 30.4712 49.2718 30.403 48.9296 30.2318C48.6818 30.1119 48.4761 29.9451 48.3123 29.7315C48.1483 29.5176 48.0187 29.2648 47.9243 28.9743C47.8295 28.6919 47.7715 28.3925 47.7497 28.0758C47.7131 27.7165 47.7131 27.353 47.7497 26.9851C47.7858 26.6857 47.837 26.3946 47.9025 26.1124C47.9681 25.83 48.0479 25.552 48.1431 25.2781C48.2959 24.8416 48.478 24.4333 48.6892 24.0525C48.9005 23.6718 49.1371 23.3016 49.3994 22.9424C49.6326 22.6344 49.8747 22.3436 50.1259 22.0696C50.3772 21.7958 50.6449 21.5393 50.9289 21.2994C51.1402 21.1285 51.3606 20.9682 51.5901 20.8183C51.8196 20.6688 52.0613 20.5381 52.3165 20.4269C52.4765 20.3584 52.6406 20.305 52.8083 20.2666C52.9757 20.2281 53.1431 20.213 53.3109 20.2217C53.9079 20.2303 54.3888 20.5254 54.7531 21.1072C54.8405 21.2527 54.9059 21.4044 54.9496 21.5626C54.9931 21.7209 55.0226 21.8858 55.0372 22.0569C55.0514 22.2878 55.0386 22.5123 54.9985 22.7305C54.9587 22.9487 54.8986 23.1605 54.8184 23.3658C54.782 23.477 54.7421 23.5839 54.6982 23.6866C54.6545 23.7894 54.6109 23.8964 54.5671 24.0074C54.538 24.0588 54.4907 24.0845 54.4251 24.0845C54.3887 24.0845 54.3488 24.0759 54.3051 24.0588C54.2321 24.0331 54.1667 23.9989 54.1085 23.956C54.05 23.9132 54.0025 23.8535 53.9664 23.7765C53.9297 23.708 53.9263 23.6441 53.9554 23.584C53.9994 23.4898 54.0428 23.3936 54.0866 23.2952C54.1303 23.1968 54.1703 23.0963 54.2065 22.9936C54.3163 22.7112 54.3924 22.4161 54.436 22.1081C54.4508 21.98 54.4543 21.8495 54.4469 21.7168C54.4398 21.5842 54.4178 21.4537 54.3815 21.3252C54.2867 21.0088 54.0937 20.8375 53.8025 20.8121C53.642 20.7948 53.4872 20.7989 53.338 20.8249C53.1887 20.8506 53.0377 20.889 52.8846 20.9402C52.6659 21.0173 52.4566 21.1137 52.2566 21.229C52.056 21.3444 51.8613 21.4751 51.6717 21.6204C51.4097 21.8172 51.162 22.0332 50.9288 22.2683C50.6958 22.5038 50.47 22.7497 50.2516 23.0065C50.0186 23.2888 49.8054 23.5839 49.6123 23.8919C49.4192 24.2 49.2428 24.5254 49.0825 24.8674C48.9441 25.1669 48.8238 25.4751 48.722 25.7913C48.6197 26.108 48.5398 26.4375 48.4818 26.7797C48.4378 27.0706 48.4122 27.3594 48.405 27.646C48.3978 27.9326 48.4121 28.2216 48.4486 28.5122C48.478 28.6919 48.5178 28.8652 48.569 29.0319C48.6197 29.1987 48.689 29.3592 48.7767 29.5133C48.8347 29.6073 48.902 29.693 48.9787 29.7699C49.0551 29.8469 49.1442 29.9067 49.2463 29.9497C49.3265 29.9838 49.4083 30.0011 49.4924 30.0011C49.5759 30.0011 49.6578 29.9923 49.7381 29.9754C49.9201 29.9324 50.0931 29.864 50.2571 29.7699C50.4208 29.6757 50.5752 29.5645 50.721 29.4363C50.896 29.2822 51.0599 29.1156 51.2128 28.9359C51.3658 28.7562 51.5152 28.5682 51.6609 28.3712C51.6609 28.3627 51.6716 28.3435 51.6937 28.3135C51.7154 28.2835 51.7335 28.2602 51.7485 28.2429C52.1051 27.7039 52.4147 27.1307 52.6771 26.5232C52.6842 26.5232 52.6877 26.5103 52.6877 26.4845C52.6807 26.4932 52.6695 26.4975 52.6551 26.4975L50.9833 27.075C50.9177 27.1007 50.8594 27.0964 50.8085 27.0622C50.6408 26.9594 50.5316 26.8098 50.4808 26.6128C50.4735 26.5274 50.4991 26.4763 50.5573 26.459C50.7465 26.3905 50.9322 26.3242 51.1144 26.2601C51.2967 26.196 51.4822 26.1296 51.6716 26.0612L52.8845 25.6762C52.9429 25.6591 53.0229 25.642 53.1248 25.6248C53.1757 25.6248 53.2305 25.6377 53.289 25.6632C53.3252 25.6805 53.358 25.7019 53.3872 25.7274C53.4162 25.7532 53.449 25.7748 53.4855 25.7916C53.5146 25.8089 53.5366 25.826 53.5512 25.8431C53.6093 25.8945 53.6404 25.9437 53.6439 25.9907C53.6475 26.038 53.6348 26.0956 53.6058 26.164C53.5256 26.3949 53.4452 26.6261 53.3653 26.857C53.2852 27.0879 53.205 27.3191 53.1248 27.55C53.0302 27.8153 52.9501 28.0825 52.8845 28.3521C52.8191 28.6215 52.7605 28.8933 52.7097 29.167C52.6807 29.3294 52.6587 29.4921 52.6441 29.6547C52.6294 29.817 52.6153 29.9839 52.6004 30.155C52.5934 30.2491 52.5857 30.3432 52.5784 30.4374C52.5712 30.5315 52.5638 30.6256 52.5567 30.7198C52.5567 30.7968 52.5166 30.8566 52.4366 30.8996C52.3856 30.9164 52.3382 30.9272 52.2945 30.9315C52.251 30.9356 52.2032 30.9379 52.1525 30.9379C52.0576 30.9207 51.9811 30.8906 51.9232 30.848C51.8721 30.8052 51.8465 30.7624 51.8465 30.7197C51.8465 30.7111 51.8446 30.7025 51.8411 30.694C51.8373 30.6856 51.8356 30.6767 51.8356 30.6683C51.8137 30.6171 51.8209 30.5698 51.8575 30.5272C51.8646 30.5272 51.8684 30.5143 51.8684 30.4886C51.8828 30.386 51.8901 30.2855 51.8901 30.187C51.8901 30.0886 51.8973 29.9923 51.9121 29.8983C51.9267 29.7614 51.943 29.6287 51.961 29.5004C51.9793 29.3723 51.9958 29.2394 52.0104 29.1027C52.0107 29.0769 52.0142 29.0599 52.0216 29.0512Z" fill="#767575"/>
<path d="M57.9543 25.3552C58.0125 25.4153 58.0562 25.4833 58.0853 25.5605C58.1072 25.6292 58.1165 25.704 58.1127 25.7849C58.1089 25.8666 58.0707 25.95 57.998 26.0353C57.9175 26.1295 57.8192 26.1958 57.7029 26.2342C57.5864 26.2727 57.466 26.2919 57.3422 26.2919C57.2182 26.2919 57.1002 26.2791 56.9872 26.2534C56.8741 26.2277 56.7849 26.1978 56.7195 26.1635C56.6175 26.1036 56.5319 26.0352 56.4629 25.9582C56.3936 25.8811 56.348 25.7744 56.3263 25.6374C56.3116 25.5776 56.3043 25.5197 56.3043 25.4639C56.3043 25.4086 56.3043 25.3507 56.3043 25.2908C56.3043 25.2394 56.3058 25.1904 56.3098 25.1431C56.3135 25.0961 56.3116 25.0469 56.3043 24.9957C56.2898 25.0128 56.277 25.0298 56.2659 25.0469C56.2551 25.0642 56.2423 25.0854 56.2279 25.1111C56.1038 25.3081 55.98 25.5047 55.856 25.7015C55.7325 25.8984 55.6122 26.0952 55.4959 26.2918C55.3062 26.6171 55.128 26.9507 54.9605 27.2929C54.7928 27.6351 54.6361 27.9859 54.4907 28.3453C54.4907 28.3626 54.4834 28.3883 54.4687 28.4222C54.4468 28.491 54.3957 28.5336 54.3159 28.5507C54.1338 28.5507 53.9735 28.4822 53.8349 28.3453C53.7841 28.2856 53.7696 28.2127 53.7912 28.1271C53.8716 27.8022 53.9535 27.479 54.037 27.1581C54.1208 26.8373 54.2028 26.5145 54.283 26.1891C54.3776 25.8298 54.4703 25.4727 54.5615 25.1175C54.6527 24.7626 54.742 24.4009 54.8293 24.033C54.8439 23.9989 54.8691 23.9752 54.9057 23.9624C54.942 23.9496 54.9749 23.9518 55.0041 23.9688C55.0843 24.0032 55.1588 24.046 55.228 24.0971C55.2972 24.1486 55.35 24.2213 55.3864 24.3153C55.4302 24.384 55.4412 24.4564 55.4193 24.5335C55.39 24.6448 55.3628 24.7539 55.3373 24.8607C55.3117 24.9679 55.2844 25.0853 55.2557 25.2137C55.2918 25.154 55.3264 25.0961 55.3592 25.0404C55.3922 24.9848 55.4266 24.9315 55.463 24.8798C55.5286 24.7858 55.5958 24.6897 55.6651 24.5912C55.7342 24.4929 55.8088 24.4008 55.8892 24.3153C55.9254 24.2812 55.9581 24.2492 55.9876 24.219C56.0164 24.1891 56.0491 24.1613 56.0856 24.1356C56.1949 24.0416 56.3187 24.0288 56.4572 24.0971C56.6466 24.1827 56.7811 24.3153 56.8614 24.4949C56.9053 24.5974 56.9269 24.7003 56.9269 24.8029C56.9342 24.9227 56.9378 25.0425 56.9378 25.1621C56.9378 25.2822 56.9378 25.402 56.9378 25.5216C57.018 25.556 57.1088 25.5774 57.211 25.5858C57.2984 25.5944 57.4039 25.5838 57.5279 25.5539C57.6518 25.5241 57.7938 25.4578 57.9543 25.3552Z" fill="#767575"/>
<path d="M61.7781 25.3552C61.8508 25.4322 61.9093 25.5049 61.9527 25.5734C61.9894 25.642 62.013 25.7081 62.0239 25.7723C62.0347 25.8367 62.0113 25.9028 61.9527 25.9712C61.8874 26.0399 61.7816 26.119 61.6359 26.2086C61.4901 26.2984 61.3355 26.3862 61.1719 26.4717C61.0076 26.5573 60.8495 26.6257 60.6965 26.6769C60.5436 26.7284 60.4268 26.7498 60.3469 26.7413C60.099 27.1518 59.8004 27.5029 59.4511 27.7935C59.3636 27.8622 59.2723 27.9242 59.1778 27.9798C59.0829 28.0355 58.9848 28.0759 58.8828 28.1016C58.7661 28.136 58.6533 28.149 58.544 28.1401C58.4348 28.1317 58.3254 28.1062 58.2162 28.0632C58.1797 28.0463 58.1432 28.0312 58.1071 28.0183C58.0706 28.0055 58.0341 27.9906 57.9977 27.9733C57.7353 27.8366 57.5789 27.6013 57.5278 27.2676C57.4988 27.1222 57.488 26.9833 57.4953 26.8504C57.5025 26.718 57.5207 26.5832 57.5497 26.4463C57.6665 25.8988 57.8885 25.3939 58.2162 24.9321C58.2965 24.8209 58.3818 24.7202 58.4731 24.6303C58.564 24.5404 58.6677 24.4656 58.7843 24.4058C58.8427 24.3717 58.9028 24.3439 58.9648 24.3223C59.0266 24.3011 59.0941 24.2946 59.1668 24.3031C59.2905 24.3031 59.3998 24.3461 59.4948 24.4316C59.604 24.5172 59.6948 24.6238 59.7679 24.7523C59.7825 24.7696 59.8004 24.7779 59.8225 24.7779C59.9244 24.7696 60.0193 24.7865 60.1066 24.8293C60.1943 24.8723 60.2777 24.9278 60.3579 24.9963C60.5837 25.2013 60.6856 25.4796 60.6636 25.8304C60.6636 25.8734 60.66 25.9181 60.653 25.9651C60.6456 26.0124 60.6347 26.0573 60.6202 26.0999C60.7804 26.0144 60.9334 25.9247 61.0789 25.8304C61.2028 25.7533 61.3304 25.6721 61.4614 25.5865C61.5921 25.5006 61.6978 25.4236 61.7781 25.3552ZM59.6258 26.6897L59.6366 26.6642C59.5491 26.6385 59.4656 26.6022 59.3855 26.5551C59.3053 26.5082 59.2285 26.4546 59.1561 26.3945C59.0467 26.292 58.9629 26.1809 58.9047 26.061C58.8608 25.9668 58.8498 25.8813 58.8718 25.8041C58.8864 25.736 58.9047 25.676 58.9266 25.6246C58.9922 25.4792 59.0684 25.3467 59.1561 25.2268C59.2433 25.1072 59.349 25.0002 59.4729 24.9059L59.4837 24.8931C59.4689 24.8847 59.451 24.8801 59.429 24.8801C59.3558 24.8974 59.2978 24.9147 59.2542 24.9318C59.1303 24.983 59.0191 25.0536 58.9211 25.1433C58.8226 25.2333 58.7335 25.3381 58.6533 25.4578C58.5658 25.5861 58.4892 25.7209 58.4239 25.862C58.3587 26.0032 58.2965 26.1465 58.2381 26.2919C58.1797 26.4545 58.1359 26.6172 58.1071 26.7796C58.0779 26.9423 58.0706 27.1088 58.085 27.2799C58.085 27.4 58.1071 27.5111 58.1507 27.6137C58.1725 27.6567 58.1944 27.6824 58.2161 27.6906C58.2964 27.7336 58.3802 27.742 58.4674 27.7164C58.5401 27.6993 58.6096 27.6714 58.675 27.633C58.7404 27.5945 58.8027 27.5539 58.8607 27.5111C59.0064 27.4001 59.143 27.2758 59.2706 27.1389C59.3979 27.0023 59.5164 26.8524 59.6258 26.6897ZM60.1174 25.5477C60.1246 25.5049 60.1265 25.46 60.1229 25.4129C60.1191 25.366 60.1138 25.3168 60.1065 25.2653L59.9752 25.3423C59.8371 25.4365 59.7093 25.5734 59.5929 25.753C59.5565 25.8042 59.5236 25.8557 59.4946 25.907C59.4655 25.9584 59.4433 26.0184 59.429 26.0865C59.4071 26.1554 59.4252 26.1979 59.4837 26.215C59.4908 26.2234 59.5018 26.2278 59.5163 26.2278C59.5747 26.245 59.6313 26.258 59.6857 26.2662C59.7406 26.2751 59.7967 26.2751 59.8553 26.2662C59.862 26.2662 59.8696 26.2621 59.877 26.2535C59.9352 26.1338 59.9844 26.0184 60.0246 25.907C60.0647 25.796 60.0954 25.676 60.1174 25.5477Z" fill="#767575"/>
<path d="M66.4327 25.5992C66.4982 25.6761 66.5399 25.7703 66.5584 25.8814C66.5763 25.9928 66.5346 26.1169 66.4327 26.2536C66.3303 26.3992 66.2449 26.5189 66.176 26.6129C66.1065 26.7071 66.0463 26.7883 65.9955 26.8568C65.9373 26.9337 65.8898 26.998 65.8533 27.0493C65.715 27.2463 65.5803 27.4388 65.4493 27.6269C65.318 27.8151 65.1833 28.0076 65.045 28.2044C64.9646 28.3243 64.8792 28.4332 64.7881 28.5317C64.6971 28.6301 64.6007 28.7221 64.4989 28.8075C64.4186 28.8761 64.3364 28.9318 64.253 28.9744C64.1689 29.0172 64.0797 29.0386 63.9852 29.0386C63.7738 29.0558 63.5845 28.9958 63.4172 28.8588C63.2932 28.7563 63.2277 28.6151 63.2205 28.4354C63.2059 28.3244 63.2042 28.2153 63.215 28.1081C63.2258 28.0012 63.2384 27.8921 63.2533 27.7808C63.2678 27.6611 63.2843 27.5434 63.3023 27.4279C63.3203 27.3124 63.3406 27.1948 63.3625 27.0749V27.0492L63.0674 27.3188C62.9651 27.4131 62.8598 27.507 62.7508 27.6011C62.6413 27.6954 62.5321 27.7894 62.4229 27.8836C62.3282 27.9691 62.2297 28.029 62.1277 28.0632C62.0256 28.0975 61.9203 28.0932 61.8108 28.0504C61.6654 27.999 61.5454 27.9094 61.4505 27.7808C61.3556 27.6611 61.3084 27.5113 61.3084 27.3316C61.3011 27.2119 61.3065 27.0942 61.3248 26.9785C61.343 26.8632 61.3629 26.7457 61.3847 26.6257C61.4286 26.4032 61.4849 26.1893 61.5543 25.9838C61.6237 25.7786 61.6979 25.5733 61.7783 25.3679C61.8439 25.1968 61.913 25.0278 61.9857 24.8608C62.0585 24.6943 62.1352 24.5296 62.2152 24.367C62.2298 24.3326 62.2591 24.2814 62.3027 24.2129C62.3315 24.1358 62.3901 24.1061 62.4774 24.123C62.5718 24.1488 62.6703 24.2129 62.7725 24.3155C62.7943 24.3412 62.8143 24.3691 62.8326 24.3989C62.8505 24.4291 62.867 24.4611 62.8817 24.4951C62.9108 24.5551 62.9034 24.6233 62.8598 24.7005C62.8087 24.7775 62.7631 24.8608 62.7233 24.9508C62.6832 25.0406 62.645 25.1328 62.6084 25.2267C62.5064 25.475 62.4083 25.7208 62.3135 25.9646C62.2189 26.2085 62.1388 26.4632 62.0732 26.7283C62.044 26.8225 62.0221 26.9188 62.0075 27.0171C61.9929 27.1155 61.9783 27.2118 61.9639 27.306C61.9566 27.323 61.9528 27.3488 61.9528 27.3828C61.9603 27.3745 61.9656 27.37 61.9695 27.37C61.9731 27.37 61.9783 27.3658 61.9856 27.3572C62.197 27.1775 62.4027 26.9912 62.6031 26.7989C62.8034 26.6064 62.9946 26.3991 63.1767 26.1765C63.3004 26.014 63.4172 25.8449 63.5265 25.6695C63.6357 25.4943 63.7411 25.3123 63.8431 25.124C63.9231 24.9874 63.9976 24.8504 64.0671 24.7135C64.1362 24.5765 64.2073 24.4354 64.2799 24.2898C64.3164 24.2215 64.3676 24.1956 64.4332 24.2128C64.5129 24.2299 64.5802 24.2576 64.6352 24.296C64.6897 24.3347 64.7461 24.3841 64.8045 24.4438C64.8265 24.478 64.8445 24.5123 64.8591 24.5464C64.8956 24.6149 64.8991 24.6876 64.87 24.7646C64.7461 25.047 64.6333 25.3358 64.5312 25.6309C64.4292 25.9261 64.3311 26.2233 64.2363 26.5229C64.1561 26.7625 64.0906 27.0063 64.0397 27.2542C63.9884 27.5027 63.9522 27.7506 63.9303 27.9987C63.9157 28.0756 63.9085 28.1527 63.9085 28.2298C63.9085 28.3068 63.9048 28.3795 63.8975 28.4478C63.8975 28.4565 63.8994 28.4629 63.903 28.467C63.9067 28.4716 63.9086 28.4821 63.9086 28.4992C63.9231 28.4821 63.9337 28.4735 63.9414 28.4735C64.0287 28.3963 64.1068 28.3131 64.1761 28.2233C64.2453 28.1335 64.3129 28.0416 64.3783 27.9474C64.5095 27.7506 64.6388 27.5602 64.7663 27.3762C64.894 27.1923 65.0192 27.0061 65.1431 26.8179L66.1264 25.3548C66.2504 25.4237 66.3523 25.5049 66.4327 25.5992Z" fill="#767575"/>
<path d="M70.6173 25.3552C70.6827 25.4665 70.7299 25.5691 70.7591 25.6631C70.7811 25.7489 70.7866 25.8344 70.7756 25.92C70.7645 26.0055 70.7082 26.0824 70.6062 26.1509C70.4383 26.2535 70.2656 26.3497 70.0871 26.4398C69.9087 26.5295 69.7465 26.6087 69.6011 26.677C69.4263 26.7541 69.2549 26.8225 69.0875 26.8824C68.9928 27.0794 68.8964 27.2696 68.7981 27.4534C68.6996 27.6377 68.5921 27.8192 68.4755 27.999C68.301 28.2557 68.1078 28.4568 67.8964 28.6022C67.8382 28.6452 67.7778 28.6814 67.716 28.7113C67.6543 28.7413 67.5832 28.752 67.5031 28.7432C67.401 28.7263 67.3083 28.7028 67.2246 28.6728C67.1409 28.643 67.0663 28.581 67.0004 28.4867C66.9349 28.4096 66.9024 28.3198 66.9024 28.2171C66.8951 27.8321 66.9897 27.4814 67.1862 27.1647C67.2957 27.0023 67.452 26.8782 67.6561 26.7925L67.853 26.7155C67.8673 26.7155 67.9167 26.6984 68.0004 26.6641C68.084 26.6299 68.1987 26.5828 68.3446 26.523C68.3736 26.5058 68.4008 26.4909 68.4263 26.4781C68.4521 26.4652 68.4827 26.4505 68.5194 26.4332C68.5413 26.4332 68.5522 26.4205 68.5522 26.3945C68.7343 26.0268 68.8616 25.646 68.9344 25.2526C68.9492 25.2098 68.9565 25.1625 68.9565 25.1113C68.9565 25.0599 68.9599 25.0087 68.9672 24.9573C68.9746 24.9402 68.9764 24.9275 68.9728 24.9188C68.9689 24.9104 68.9672 24.8974 68.9672 24.8801C68.8944 24.9147 68.8433 24.9402 68.8142 24.9573C68.7269 25.0003 68.6448 25.0516 68.5686 25.1113C68.492 25.1714 68.4173 25.2312 68.3447 25.291C68.2207 25.4023 68.1024 25.5198 67.9896 25.6439C67.8765 25.768 67.7657 25.8942 67.6563 26.0226C67.3069 26.4506 66.9863 26.8953 66.6949 27.3573C66.4035 27.8192 66.1414 28.3027 65.9084 28.8076C65.7918 29.0558 65.6882 29.3015 65.5967 29.5454C65.5059 29.7894 65.4274 30.0397 65.3621 30.2964C65.3256 30.4161 65.2983 30.5315 65.28 30.6429C65.2619 30.7538 65.2418 30.8696 65.2198 30.9892C65.1908 31.1261 65.165 31.2608 65.1433 31.3934C65.1215 31.526 65.096 31.6608 65.067 31.7977C65.0524 31.8662 65.0196 31.9133 64.9685 31.9388C64.8158 32.016 64.6555 32.0201 64.4878 31.9518C64.4733 31.9345 64.4623 31.926 64.4551 31.926C64.4115 31.883 64.3934 31.8402 64.4002 31.7977C64.4078 31.7292 64.4134 31.6672 64.4167 31.6117C64.4207 31.5557 64.4297 31.4937 64.444 31.4256C64.4733 31.2029 64.5096 30.987 64.5535 30.7773C64.597 30.5678 64.6446 30.3516 64.6954 30.1292C64.7391 29.9324 64.7813 29.7356 64.8212 29.539C64.8609 29.342 64.9029 29.1456 64.9466 28.9486C65.0558 28.4608 65.1835 27.9861 65.3292 27.5239C65.4748 27.062 65.6387 26.6 65.8209 26.1381C65.9447 25.8214 66.0704 25.507 66.1979 25.1946C66.3251 24.8825 66.4655 24.5765 66.6185 24.2768C66.6549 24.2085 66.693 24.1379 66.7332 24.0654C66.7733 23.9925 66.8152 23.9221 66.8589 23.8535C66.8953 23.7852 66.9533 23.7638 67.0337 23.7895C67.0847 23.815 67.1358 23.8494 67.1865 23.892C67.2811 23.9778 67.3432 24.0676 67.3724 24.1616C67.3944 24.2386 67.3832 24.3072 67.3396 24.3671C67.2812 24.4356 67.2339 24.508 67.1975 24.5851C67.1611 24.6622 67.1247 24.7436 67.0883 24.829C66.9644 25.103 66.846 25.3808 66.7332 25.6632C66.6202 25.9456 66.5093 26.2323 66.4001 26.5232V26.536V26.5488C66.4289 26.506 66.4563 26.4634 66.4818 26.4207C66.5072 26.3779 66.5347 26.3351 66.5639 26.2922C66.7315 26.0528 66.9063 25.8216 67.0883 25.5994C67.2705 25.3768 67.4671 25.1627 67.6783 24.9575C67.7801 24.8635 67.8805 24.7714 67.9786 24.6816C68.077 24.5917 68.1844 24.5126 68.3013 24.4442C68.3593 24.4101 68.4213 24.38 68.4868 24.3543C68.5525 24.3286 68.6215 24.3115 68.6945 24.3029C68.8693 24.2944 69.0331 24.3629 69.186 24.5083C69.3756 24.6965 69.4774 24.9404 69.492 25.2398C69.5066 25.4025 69.4973 25.5628 69.4647 25.7211C69.4318 25.8795 69.4046 26.0056 69.3826 26.0997C69.5576 26.0227 69.7524 25.9158 69.9672 25.7789C70.1816 25.6419 70.3987 25.5006 70.6173 25.3552ZM67.5688 28.0758C67.6924 27.9562 67.7981 27.8216 67.8854 27.6717C67.9731 27.5222 68.0602 27.3701 68.1477 27.216H68.1368C68.0713 27.2418 68.0092 27.2718 67.951 27.3061C67.8928 27.3402 67.8417 27.3873 67.7981 27.4471C67.7544 27.5156 67.7178 27.5863 67.6887 27.6588C67.6598 27.7314 67.6306 27.8064 67.6016 27.8834L67.5688 28.0758Z" fill="#767575"/>
</svg>
