<svg width="96" height="96" viewBox="0 0 96 96" fill="none" xmlns="http://www.w3.org/2000/svg">
<g clip-path="url(#clip0_1965_3386)">
<path d="M56.4852 41.9184C54.9232 40.3564 52.3904 40.3564 50.8284 41.9184L48 44.7472C44.8756 47.8712 39.8104 47.8712 36.6862 44.7472C33.562 41.6228 33.562 36.5575 36.6862 33.4333L59.2088 10.9047C67.6244 9.00088 76.8032 11.325 83.3552 17.877C93.0328 27.5544 93.4864 42.9628 84.7168 53.1776L76.284 61.7176L56.4852 41.9184ZM12.6445 17.877C21.3381 9.18336 34.6564 7.93328 44.68 14.1266L31.0293 27.7764C24.7809 34.0248 24.7809 44.1556 31.0293 50.404C37.0884 56.4628 46.798 56.6464 53.078 50.9548L53.6568 50.404L70.6272 67.3744L53.6568 84.3448C50.5324 87.4692 45.4672 87.4692 42.3432 84.3448L12.6445 54.6464C2.49089 44.4928 2.49089 28.0306 12.6445 17.877Z" fill="#2473BA"/>
</g>
<defs>
<clipPath id="clip0_1965_3386">
<rect width="96" height="96" fill="white"/>
</clipPath>
</defs>
</svg>
