<svg width="32" height="32" viewBox="0 0 32 32" fill="none" xmlns="http://www.w3.org/2000/svg">
<path d="M24.4853 23.1518L16 31.637L7.51472 23.1518C2.82843 18.4654 2.82843 10.8675 7.51472 6.18122C12.201 1.49493 19.7989 1.49493 24.4853 6.18122C29.1716 10.8675 29.1716 18.4654 24.4853 23.1518ZM16 19.9998C18.9455 19.9998 21.3333 17.612 21.3333 14.6665C21.3333 11.721 18.9455 9.33317 16 9.33317C13.0545 9.33317 10.6667 11.721 10.6667 14.6665C10.6667 17.612 13.0545 19.9998 16 19.9998ZM16 17.3332C14.5272 17.3332 13.3333 16.1393 13.3333 14.6665C13.3333 13.1937 14.5272 11.9998 16 11.9998C17.4728 11.9998 18.6667 13.1937 18.6667 14.6665C18.6667 16.1393 17.4728 17.3332 16 17.3332Z" fill="#E53935"/>
</svg>
