<svg width="96" height="96" viewBox="0 0 96 96" fill="none" xmlns="http://www.w3.org/2000/svg">
<g clip-path="url(#clip0_1965_3351)">
<path d="M68 60.9816V88.4676C68 89.572 67.1044 90.468 66 90.468C65.6376 90.468 65.282 90.3692 64.9712 90.1828L48 80L31.029 90.1828C30.0818 90.7508 28.8533 90.4436 28.285 89.4968C28.0985 89.1856 28 88.83 28 88.4676V60.9816C20.6843 55.1172 16 46.1056 16 36C16 18.3269 30.3269 4 48 4C65.6732 4 80 18.3269 80 36C80 46.1056 75.3156 55.1172 68 60.9816ZM48 60C61.2548 60 72 49.2548 72 36C72 22.7452 61.2548 12 48 12C34.7452 12 24 22.7452 24 36C24 49.2548 34.7452 60 48 60ZM48 52C39.1634 52 32 44.8364 32 36C32 27.1634 39.1634 20 48 20C56.8364 20 64 27.1634 64 36C64 44.8364 56.8364 52 48 52Z" fill="#2473BA"/>
</g>
<defs>
<clipPath id="clip0_1965_3351">
<rect width="96" height="96" fill="white"/>
</clipPath>
</defs>
</svg>
